<?xml version="1.0" encoding="utf-8"?>
<!-- Generator: Adobe Illustrator 21.0.0, SVG Export Plug-In . SVG Version: 6.00 Build 0)  -->
<svg version="1.1" id="Layer_1" xmlns="http://www.w3.org/2000/svg" xmlns:xlink="http://www.w3.org/1999/xlink" x="0px" y="0px"
	 viewBox="0 0 32 32" style="enable-background:new 0 0 32 32;" xml:space="preserve">
<style type="text/css">
	.st0{fill:#333333;}
</style>
<g id="trash">
	<path class="st0" d="M30,6.8C29.9,5.2,28.6,4,27,4h-3V3v0c0-1.7-1.3-3-3-3H11C9.3,0,8,1.3,8,3v0v1H5C3.4,4,2.1,5.2,2,6.8h0V8v1
		c0,1.1,0.9,2,2,2l0,0v17c0,2.2,1.8,4,4,4h16c2.2,0,4-1.8,4-4V11l0,0c1.1,0,2-0.9,2-2V8L30,6.8L30,6.8z M10,3c0-0.6,0.4-1,1-1h10
		c0.6,0,1,0.4,1,1v1H10V3z M26,28c0,1.1-0.9,2-2,2H8c-1.1,0-2-0.9-2-2V11h20V28z M28,8v1H4V8V7c0-0.6,0.4-1,1-1h22c0.6,0,1,0.4,1,1
		V8z"/>
	<path class="st0" d="M9,28h2c0.6,0,1-0.4,1-1V14c0-0.6-0.4-1-1-1H9c-0.6,0-1,0.4-1,1v13C8,27.6,8.4,28,9,28z M9,14h2v13H9V14z"/>
	<path class="st0" d="M15,28h2c0.6,0,1-0.4,1-1V14c0-0.6-0.4-1-1-1h-2c-0.6,0-1,0.4-1,1v13C14,27.6,14.4,28,15,28z M15,14h2v13h-2
		V14z"/>
	<path class="st0" d="M21,28h2c0.6,0,1-0.4,1-1V14c0-0.6-0.4-1-1-1h-2c-0.6,0-1,0.4-1,1v13C20,27.6,20.4,28,21,28z M21,14h2v13h-2
		V14z"/>
</g>
</svg>
