<?xml version="1.0" encoding="utf-8"?>
<!-- Generator: Adobe Illustrator 21.0.0, SVG Export Plug-In . SVG Version: 6.00 Build 0)  -->
<svg version="1.1" id="Layer_3" xmlns="http://www.w3.org/2000/svg" xmlns:xlink="http://www.w3.org/1999/xlink" x="0px" y="0px"
	 viewBox="0 0 100 100" style="enable-background:new 0 0 100 100;" xml:space="preserve">
<style type="text/css">
	.st0{fill:#FFFFFF;}
</style>
<g>
	<path class="st0" d="M95.7,17l-32-7.9c-3-0.7-6.1,1.1-6.9,4.1L41.2,76.1c-0.7,3,1.1,6.1,4.1,6.9l32,7.9c3,0.7,6.1-1.1,6.9-4.1
		l15.6-62.9C100.6,20.8,98.7,17.7,95.7,17z"/>
	<path class="st0" d="M35.5,74.5l15.6-62.9c0-0.2,0.1-0.4,0.1-0.5l-8-2c-3-0.7-6.1,1.1-6.9,4.1L20.7,76.1c-0.7,3,1.1,6.1,4.1,6.9
		l14.3,3.6C35.9,83.6,34.4,79.1,35.5,74.5z"/>
	<path class="st0" d="M14.9,74.5l15.6-62.9c0-0.2,0.1-0.4,0.1-0.5l-8-2c-3-0.7-6.1,1.1-6.9,4.1L0.2,76.1c-0.7,3,1.1,6.1,4.1,6.9
		l14.3,3.6C15.4,83.6,13.8,79.1,14.9,74.5z"/>
</g>
</svg>
