<?xml version="1.0" encoding="utf-8"?>
<!-- Generator: Adobe Illustrator 21.0.0, SVG Export Plug-In . SVG Version: 6.00 Build 0)  -->
<svg version="1.1" id="Layer_1" xmlns="http://www.w3.org/2000/svg" xmlns:xlink="http://www.w3.org/1999/xlink" x="0px" y="0px"
	 viewBox="0 0 20 20" style="enable-background:new 0 0 20 20;" xml:space="preserve">
<style type="text/css">
	.st0{fill:#97A5A4;}
</style>
<path class="st0" d="M9.5,0.9c0.2-0.4,0.8-0.4,1,0l2.1,3.5l2,3.6c0.2,0.4-0.1,0.9-0.5,0.9H10H5.9C5.5,8.9,5.2,8.4,5.4,8l2-3.6
	L9.5,0.9z"/>
<path class="st0" d="M10.5,19.1c-0.2,0.4-0.8,0.4-1,0l-2.1-3.5l-2-3.6c-0.2-0.4,0.1-0.9,0.5-0.9H10h4.1c0.5,0,0.8,0.5,0.5,0.9
	l-2,3.6L10.5,19.1z"/>
</svg>
